<svg width="35" height="32" viewBox="0 0 35 32" fill="none" xmlns="http://www.w3.org/2000/svg">
<path d="M18.6766 13.9798L21.2393 18.1058L21.2694 18.1527C22.6448 20.2277 22.6789 21.4923 21.6697 22.5304C20.9563 23.2642 20.9563 24.454 21.6697 25.1879C22.3832 25.9218 23.5399 25.9218 24.2534 25.1879C26.6488 22.724 26.5671 19.4879 24.3042 16.0595L20.1165 9.31733C19.374 8.12191 17.6608 8.17139 16.9846 9.40777L13.6962 15.4211C12.5705 17.4474 12 19.6478 12 21.98C12 26.7972 15.6773 31 21.5 31C27.3114 31 31 26.5033 31 21.6041C31 19.0111 30.3632 16.6095 29.0954 14.436L22.8789 3.9042C22.3553 3.01707 21.2316 2.73454 20.3692 3.27315C19.5067 3.81177 19.232 4.96757 19.7557 5.8547L25.9672 16.3781C26.8868 17.9546 27.3462 19.6872 27.3462 21.6041C27.3462 24.5557 25.1429 27.2416 21.5 27.2416C17.7861 27.2416 15.6538 24.8047 15.6538 21.98C15.6538 20.3032 16.0577 18.7453 16.8747 17.2748L18.6766 13.9798Z" fill="url(#paint0_linear_1150_1887)"/>
<path d="M31.5617 13.0474L31.0273 14.2111L30.748 12.9791L30.703 13.221L30.6281 12.9214L30.4728 13.8498L30.1155 13.0207L30.123 13.3103L30.0041 13.0538L30.0289 14.334L29.2363 13.3338L29.5253 14.3717L28.683 13.6459L29.2281 14.7318L28.0828 14.0637L28.8269 15.0533L27.6838 14.6474L28.7201 15.5878L27.764 15.5082L27.3964 15.4732L27.3184 15.4715L28.3464 15.9995L27.2961 16.0916L27.4543 16.145L27.226 16.164L28.5848 16.5722L27.3245 17.0275L28.4411 17.0813L27.4985 17.6337L28.4672 17.4997L27.6584 18.208L28.824 17.8215L28.0531 18.804L29.2987 18.1078L28.7599 19.3868L28.8043 19.3404L28.7754 19.4091L29.6252 18.614L29.3874 19.6993L29.3788 19.7577L30.2344 18.5391L30.2922 20L30.7138 18.8792L30.9787 19.9963L31.1354 19.0581L31.5127 19.9002L31.5004 18.7909L32.1601 19.758L31.8741 18.3792L32.9837 19.3537L32.9144 19.2074L32.9664 19.2583L32.474 18.283L33.4857 18.8583L33.5118 18.8721L32.6602 17.7404L34.0434 18.1324L33.0691 17.3671L34.3055 17.4785L33.2236 16.9127L34.3165 16.8071L33.3044 16.4904L34.3267 16.2052L33.0271 16.0544L34.2036 15.3811L33.8531 15.4216L34.1203 15.2659L33.1822 15.4045L33.9528 14.7435L33.7678 14.8088L33.8703 14.708L32.6438 15.1252L33.3955 14.0172L32.4227 14.648L32.8975 13.5483L31.906 14.4979L32.1932 13.2046L31.5259 14.1429L31.5617 13.0474Z" fill="#D0D0D0"/>
<path fill-rule="evenodd" clip-rule="evenodd" d="M24.7843 0.91948C24.7134 0.621963 24.1231 1.35402 23.8411 1.6548C23.5188 1.99845 23.1879 2.32522 22.8392 2.64204C22.4737 2.97411 21.8995 3.06439 21.5889 3.35689C21.4616 3.47679 21.4783 3.76269 21.5418 3.95021C21.6673 4.32093 21.8812 4.64783 22.0858 4.98016C22.2813 5.29757 22.4803 5.60944 22.7329 5.88677C23.0661 6.25248 23.3667 6.64625 23.7509 6.96432C24.2041 7.34037 24.6355 7.74027 25.1192 8.07973C25.4677 8.32332 25.8121 8.56816 26.1905 8.76668C26.8422 9.1097 27.4939 9.46675 28.1818 9.72264C28.6331 9.88997 29.0999 10.0372 29.5746 10.1229C29.7645 10.1569 30.1021 10.3829 30.1091 10.226C30.1462 9.352 29.9551 8.07662 29.8076 7.01963C29.721 6.4002 29.7094 5.74213 29.5286 5.14135C29.4482 4.87448 29.3381 4.56997 29.1508 4.38465C28.7914 4.02885 28.3065 3.81819 27.8044 3.56403C27.0193 3.16661 26.251 2.46766 25.6187 1.84552C25.3228 1.55445 24.8645 1.25653 24.7843 0.91948Z" fill="url(#paint1_linear_1150_1887)"/>
<path d="M21.4644 2.34807C21.3965 2.43331 21.287 2.90761 21.2502 2.70124C21.2125 2.47079 21.1757 2.33668 21.1387 2.31824C21.1027 2.39881 21.0937 2.84868 21.0059 2.47853C20.9456 2.29681 20.9376 2.42397 20.9112 2.4198C20.8898 2.54389 20.9846 3.01058 20.8198 2.71246C20.8437 2.56458 20.689 2.59372 20.6468 2.49761C20.7923 2.71827 20.5769 2.90251 20.5877 2.58441C20.6241 2.46039 20.4661 2.73018 20.456 2.6136C20.5911 2.82969 20.3052 2.9704 20.3364 2.65535C20.3073 2.4477 20.2773 2.56506 20.2499 2.53717C20.2294 2.83412 20.1788 2.85135 20.0947 2.55803C20.0573 2.54857 20.0181 2.54309 20.0389 2.81043C20.0979 3.17265 19.9183 2.8264 19.8127 2.70005C19.668 2.50127 19.9764 3.17943 19.7926 2.96176C19.5894 2.74543 19.5316 2.73282 19.6844 3.01513C19.8673 3.31124 19.516 2.9957 19.3968 2.94588C19.2693 2.88928 19.7111 3.32662 19.5542 3.26985C19.3682 3.20017 19.0757 3.06335 19.3708 3.29701C19.6381 3.49147 19.5193 3.51147 19.2504 3.4635C18.9194 3.40097 19.2672 3.54663 19.3865 3.61859C19.4555 3.68931 19.0168 3.66098 19.0418 3.71306C19.1449 3.77655 19.6234 3.82555 19.4374 3.90043C19.1872 3.69522 19.4856 4.0088 19.1644 4.0067C18.9344 4.0205 19.5198 4.1564 19.1605 4.25185C19.1858 4.20801 19.5847 4.29263 19.2516 4.35973C18.9023 4.3127 19.1663 4.36138 19.1873 4.48635C19.542 4.50131 19.1906 4.58403 19.0063 4.57649C18.9533 4.61475 19.247 4.68032 19.4119 4.73792C19.5116 4.7923 19.0094 4.89086 19.0432 4.93374C19.242 4.94126 19.5517 4.91929 19.2164 5.06932C18.8362 5.26221 19.4814 5.03826 19.3699 5.14975C19.1822 5.31152 19.0489 5.43996 19.3695 5.28978C19.6357 5.17961 19.4518 5.30689 19.3792 5.44716C19.1376 5.72164 19.4716 5.46904 19.61 5.39553C19.7531 5.54583 19.401 5.53236 19.406 5.56525C19.7427 5.49266 19.4078 5.94604 19.5843 5.76035C19.7862 5.52298 19.8497 5.83764 19.5655 5.84228C19.2384 5.92705 19.795 5.88702 19.7515 5.93179C19.9885 5.85605 19.3114 6.18042 19.5904 6.10757C19.9362 6.00394 19.7611 6.15563 19.5837 6.3083C19.5251 6.39941 20.0825 6.07314 19.9133 6.26246C19.797 6.42025 19.5768 6.67219 19.8814 6.44795C20.1148 6.26991 20.1786 6.29031 20.03 6.55908C19.8846 6.84538 19.972 6.78129 20.145 6.58687C20.3514 6.31269 20.1532 6.79623 20.1845 6.77685C20.0822 7.039 20.3067 6.68061 20.46 6.92443C20.3826 6.99495 20.1341 6.97095 20.1107 7.01896C20.2138 7.08219 20.6926 7.13222 20.5061 7.20557C20.3659 7.26988 19.9605 7.37839 20.3346 7.35671C20.7024 7.31862 20.3402 7.47528 20.209 7.57029C20.3866 7.54565 20.6791 7.47047 20.3838 7.67397C20.0975 7.89441 20.5155 7.68454 20.6469 7.64975C20.7033 7.66783 20.2748 8.09394 20.4768 7.96754C20.5968 7.92221 20.9515 7.60223 20.7825 7.8948C20.7399 8.02636 20.5392 8.39664 20.7596 8.13047C20.9652 7.86718 20.9617 7.99079 20.8856 8.24851C20.805 8.53141 21.023 8.09893 21.0886 8.02833C21.2319 7.74305 21.1529 8.23301 21.1807 8.35102C21.1757 8.59807 21.2888 8.11681 21.3376 8.03295C21.3769 8.15026 21.4242 8.64335 21.4539 8.30135C21.492 7.99857 21.4987 8.2013 21.5851 8.34376C21.4499 8.58518 21.9329 8.30789 21.8551 8.44024C21.6674 8.60227 21.5342 8.73059 21.854 8.57848C22.1761 8.40811 21.8619 8.71721 21.7848 8.84774C21.7683 8.91369 22.0812 8.67897 22.1956 8.62557C22.1392 8.77949 22.0144 9.03864 22.0054 9.11962C22.0894 9.07171 22.366 8.66536 22.2796 8.94016C22.2301 9.1466 22.1801 9.36324 22.3416 9.0629C22.464 8.85186 22.5714 8.69285 22.5331 9.03888C22.5552 9.36359 22.4707 9.27422 22.715 9.21009C22.8991 9.34042 22.4339 9.50021 22.8396 9.39755C23.1665 9.2934 22.5536 9.68245 22.7297 9.63015C22.9149 9.56229 23.2119 9.41137 22.9526 9.6779C22.7082 9.9521 22.9192 9.81313 23.1098 9.69168C23.3777 9.47212 23.1268 9.86343 23.0995 9.99111C22.9729 10.2515 23.2663 9.87336 23.3528 9.80891C23.3851 9.83669 23.2207 10.2932 23.3097 10.176C23.3934 10.099 23.5829 9.65345 23.5858 9.85695C23.6054 9.96142 23.5582 10.4766 23.64 10.1999C23.7053 9.99323 23.7712 9.77703 23.8016 10.1188C23.793 10.2094 23.8428 10.3788 23.9028 10.1423C24.2406 10.1686 23.6196 10.4361 23.9501 10.3416C24.3078 10.2354 24.0222 10.4394 23.8877 10.5716C23.9522 10.5861 24.4183 10.3111 24.2186 10.5291C24.0669 10.7216 23.9456 10.8849 24.2353 10.6718C24.496 10.4593 24.4571 10.5997 24.3416 10.8291C24.1803 11.1387 24.3464 10.9579 24.4921 10.8068C24.6583 10.6104 24.4822 11.0398 24.4857 11.1431C24.5653 11.0498 24.6902 10.8388 24.787 10.7009C24.7996 10.8478 24.7834 11.1742 24.8127 11.2173C24.8483 11.034 24.995 10.7404 25.0127 11.0948C25.0047 11.3087 25.0516 11.08 25.2087 11.1313C25.1422 11.322 24.9373 11.4002 25.2778 11.2649C25.5948 11.097 25.2704 11.4124 25.2006 11.5362C25.2066 11.5818 25.5027 11.3613 25.6205 11.3051C25.5603 11.4641 25.4608 11.6814 25.4251 11.8042C25.5286 11.7314 25.8065 11.3365 25.6963 11.6573C25.602 11.9792 25.6731 11.9077 25.816 11.6655C25.9717 11.3406 25.9566 11.6054 25.9559 11.8205C25.9319 12.1953 26.0296 11.8133 26.0903 11.6616C26.151 11.4568 26.1755 12.1288 26.2166 11.9561C26.2564 11.7058 26.2652 11.6285 26.3318 11.8161C26.4239 12.1864 26.3539 11.5849 26.5776 11.8504C26.3854 11.9837 26.2704 12.0475 26.5927 11.9711C26.8481 11.8992 26.2124 12.306 26.482 12.1951C26.7048 12.1014 26.9073 12.0228 26.6589 12.2795C26.4059 12.5609 26.6979 12.3482 26.8586 12.2549C27.1019 12.0651 26.8274 12.4811 26.8108 12.5959C26.7203 12.7975 27.007 12.4293 27.0869 12.3736C27.0864 12.4617 26.9308 12.9196 27.0489 12.7293C27.1326 12.6523 27.3278 12.1859 27.3084 12.4682C27.3253 12.5892 27.2824 13.0784 27.3732 12.745C27.4461 12.4586 27.5003 12.4437 27.5324 12.7494C27.5831 13.1426 27.582 12.4353 27.6465 12.6021C27.7498 12.9245 27.7663 12.8145 27.7489 12.54C27.7201 12.271 27.954 12.8365 27.9748 12.7695C27.9817 12.6533 27.8054 12.2039 27.9528 12.3419C28.1058 12.418 28.2104 12.7067 28.3285 12.6216C28.5516 12.5255 28.7487 12.4498 28.5025 12.7056C28.2507 12.9871 28.5506 12.7671 28.706 12.6779C28.944 12.4934 28.6698 12.9118 28.6567 13.0223C28.5678 13.2242 28.8529 12.8582 28.9332 12.8036C28.9335 12.8883 28.7769 13.3472 28.8961 13.1523C28.9784 13.0775 29.1712 12.6119 29.1518 12.8979C29.17 13.0179 29.1296 13.5062 29.2201 13.1716C29.2934 12.884 29.3467 12.8762 29.3772 13.1793C29.4262 13.5662 29.4271 12.8507 29.491 13.0174C29.5937 13.3361 29.6149 13.2474 29.5963 12.9618C29.5672 12.6939 29.8012 13.2595 29.8221 13.1925C29.8287 13.0762 29.6529 12.627 29.7998 12.7649C29.9052 12.8471 30.191 13.181 30.092 12.9753C29.9895 12.7751 29.8765 12.5636 30.1507 12.7858C30.4457 13.0099 30.1467 12.6704 30.0715 12.5431C29.9293 12.3612 30.3652 12.5954 30.475 12.5948C30.5201 12.5617 29.9788 12.2585 30.2877 12.3252C30.5787 12.371 30.6466 12.3485 30.3475 12.2132C30.0061 12.091 30.6041 12.1403 30.5723 12.0908C30.3364 12.0302 30.1363 11.969 30.4867 11.91C30.7795 11.8425 30.2604 11.8509 30.1637 11.8195C30.1766 11.761 30.6289 11.565 30.5057 11.5647C30.6472 11.4565 30.194 11.6186 30.2587 11.5267C30.4225 11.3855 30.4864 11.3516 30.4526 11.3078C30.2753 11.3769 30.0898 11.0156 30.4003 11.132C30.7489 11.1961 30.2983 11.0201 30.1968 10.9494C30.2105 10.9006 30.7814 10.9254 30.4139 10.8452C30.0475 10.7845 30.4009 10.7248 30.5739 10.6647C30.4675 10.6235 29.9663 10.6732 30.2241 10.5473C30.4132 10.4361 30.5445 10.3501 30.4723 10.3343C30.4954 10.2803 29.971 10.4624 30.3157 10.2371C30.5298 10.063 30.3802 10.1071 30.1774 10.1917C29.8549 10.3732 30.096 10.0982 30.1869 9.94498C30.3732 9.69175 29.9219 10.1233 29.9166 10.0556C29.9486 9.93918 30.1862 9.51155 29.9649 9.77843C29.8038 9.95916 29.6586 10.1106 29.7769 9.77541C29.8858 9.42505 29.7557 9.63628 29.6339 9.82818C29.5212 10.0338 29.661 9.36795 29.5789 9.53943C29.5092 9.64362 29.3998 10.108 29.3792 9.76807C29.3426 9.48727 29.3076 9.51891 29.2704 9.46731C29.2442 9.71361 29.2101 9.8827 29.1241 9.54824C29.0919 9.48687 29.0759 9.54974 29.0525 9.54916C29.1883 9.82953 28.6749 9.7764 28.9772 9.59534C29.1327 9.46249 28.8899 9.57277 28.7817 9.60788C28.4597 9.79279 28.6872 9.52465 28.7837 9.36462C28.9623 9.12461 28.5931 9.46045 28.5038 9.50213C28.5255 9.40202 28.7774 8.95029 28.5874 9.17361C28.4725 9.27687 28.2358 9.6077 28.3614 9.26211C28.4397 8.98187 28.4314 8.90557 28.2687 9.19244C28.1178 9.50003 28.2476 8.89195 28.1953 8.92439C28.1273 9.01143 28.0158 9.50332 27.9878 9.21714C27.9507 8.96817 27.917 8.90948 27.8788 8.85361C27.847 9.04831 27.8271 9.35745 27.7374 8.99969C27.6883 8.86774 27.679 8.96766 27.6545 8.96691C27.7045 9.1987 27.2421 9.10411 27.5753 8.9534C27.7526 8.80348 27.5046 8.90816 27.3308 8.97532C27.0495 9.12373 27.3918 8.76551 27.4333 8.65167C27.5178 8.49674 27.0234 8.99486 27.1546 8.75406C27.2309 8.57168 27.3691 8.29592 27.1334 8.58469C26.9292 8.84495 26.922 8.74161 27.0037 8.47422C27.112 8.12521 26.8996 8.52988 26.8118 8.64189C26.776 8.6131 26.8727 8.05833 26.7674 8.35496C26.6892 8.53585 26.5983 8.83245 26.5807 8.46637C26.5472 8.20016 26.5119 8.25328 26.4784 8.25953C26.4575 8.55665 26.4076 8.57363 26.3259 8.27944C26.2906 8.29522 26.2455 8.24569 26.2671 8.53272C26.3852 8.90462 26.033 8.53564 26.1519 8.47288C26.269 8.43764 25.9513 8.372 25.9146 8.40884C25.5987 8.412 26.0647 8.24254 26.1507 8.15686C26.1296 8.12554 26.1608 8.06747 25.8815 8.13641C25.7912 8.12547 26.234 7.83095 26.0479 7.89374C25.9189 7.91715 25.5069 8.16949 25.7237 7.91319C25.8608 7.7134 25.9802 7.53202 25.7013 7.76552C25.4408 8.00239 25.6868 7.60828 25.7193 7.47993C25.707 7.42515 25.4248 7.80635 25.3871 7.77378C25.393 7.6649 25.5608 7.175 25.416 7.42042C25.2759 7.68165 25.2199 7.68248 25.2621 7.37886C25.287 7.11519 25.1413 7.57576 25.088 7.66897C25.1318 7.69568 24.9174 7.43309 25.1061 7.38472C24.9645 7.29857 24.9808 7.31285 24.9425 7.23739C24.9693 7.44772 24.5891 7.27848 24.9202 7.16408C25.1117 7.05653 25.0208 7.04999 24.9547 7.03916C24.6069 7.14877 24.8162 6.98321 24.978 6.84102C24.9775 6.79538 24.7357 6.90521 24.5722 6.96302C24.4701 6.9716 24.8117 6.59417 24.7683 6.57247C24.6351 6.65281 24.3383 6.9384 24.5224 6.62089C24.6784 6.31611 24.5731 6.4087 24.3996 6.60523C24.1792 6.89726 24.3362 6.4888 24.3555 6.33611C24.4143 6.08875 24.1261 6.72266 24.1377 6.53958C24.1545 6.2973 24.1646 6.08379 24.0479 6.42658C23.8924 6.70256 23.9039 6.24688 24.0378 6.32173C23.8179 6.25799 23.8777 6.23728 23.8266 6.17528C23.8304 6.35027 23.5169 6.2531 23.8484 6.12715C24.1269 5.99017 23.86 6.05044 23.9725 5.97317C23.6885 6.04988 23.6293 6.01615 23.8821 5.82891C24.0204 5.69906 23.7382 5.83126 23.583 5.88498C23.3474 5.99441 23.6963 5.63415 23.7319 5.5256C23.7282 5.46388 23.2885 5.91044 23.4486 5.6279C23.5525 5.40226 23.6172 5.23617 23.3951 5.50861C23.1896 5.78135 23.2161 5.62066 23.2847 5.38117C23.3969 5.0249 23.2037 5.38856 23.1127 5.51157C23.0704 5.55578 23.1153 5.22924 23.1029 5.17819C23.1219 5.19613 22.8489 5.1605 22.7785 5.10128C22.9665 5.0412 23.2893 4.96811 22.9113 4.96225C22.5503 4.97598 22.7833 4.85807 22.9721 4.74989C23.1462 4.65679 22.9947 4.67348 23.0055 4.6416C22.6835 4.73706 22.7593 4.63692 22.9701 4.47038C23.0631 4.36639 22.7331 4.52749 22.5914 4.57114C22.4892 4.57959 22.8311 4.20257 22.7874 4.18046C22.6532 4.26005 22.3537 4.54548 22.5378 4.22844C22.6939 3.92368 22.5886 4.01627 22.4151 4.2128C22.2116 4.46663 22.3337 4.18955 22.3557 4.01079C22.42 4.04045 22.3989 3.76364 22.2929 3.94522C22.2009 3.81268 21.9603 3.83626 22.1666 3.7916C22.5129 3.78705 22.3702 3.73278 22.1203 3.66758C21.9898 3.61427 22.6779 3.52544 22.2702 3.51599C21.9772 3.51471 21.9303 3.45877 22.213 3.3299C22.4451 3.2092 22.3055 3.22392 22.3007 3.18802C21.9787 3.28347 22.0545 3.18334 22.2653 3.01677C22.3422 2.92394 22.0682 3.05253 21.9128 3.10574C21.7484 3.15798 22.0688 2.82067 22.1088 2.70866C21.9952 2.76243 21.6532 3.10099 21.821 2.80425C21.9531 2.53543 21.9337 2.4982 21.7334 2.73728C21.516 3.03194 21.608 2.74915 21.6519 2.5559C21.7477 2.23694 21.5286 2.6637 21.4499 2.75761C21.4547 2.62113 21.4595 2.48466 21.4644 2.34807ZM23.0654 5.22349C23.0683 5.55898 22.6488 5.19882 22.9995 5.2313C23.0215 5.22866 23.0434 5.22613 23.0654 5.22349ZM20.3962 6.55532C20.6582 6.70585 20.2628 6.8897 20.2934 6.71199C20.3277 6.65981 20.3619 6.60762 20.3962 6.55532ZM26.0313 8.51014C26.1784 8.72245 25.7074 8.52504 26.0058 8.51805L26.0313 8.51014ZM21.7612 8.23586C21.8325 8.50493 21.4033 8.29803 21.7097 8.2335L21.7418 8.23491L21.7612 8.23586ZM22.6883 8.92944C22.8641 9.13286 22.4797 9.30386 22.6582 9.01173C22.6682 8.98433 22.6783 8.95683 22.6883 8.92944ZM30.1228 11.2961C30.5009 11.2872 30.0951 11.5325 30.0852 11.3558C30.0976 11.3359 30.1102 11.316 30.1228 11.2961ZM28.098 12.2367C28.4294 12.3127 28.0612 12.4959 28.371 12.4019C28.5211 12.5004 28.1719 12.7554 28.2051 12.4618C28.1701 12.3864 28.1335 12.3121 28.098 12.2367Z" fill="#D0D0D0"/>
<path d="M21.6699 2.72832C21.602 2.81309 21.4958 3.26841 21.4639 3.00884C21.4245 2.77258 21.3865 2.71362 21.351 2.71449C21.3305 2.98448 21.2837 3.03153 21.1979 2.74918C21.167 2.77769 21.1263 2.73343 21.1512 2.99545C21.2001 3.36875 21.0169 2.88041 21.0201 2.97203C20.8283 2.76913 20.9492 2.90271 20.929 3.10132C20.7584 3.0697 20.9038 2.77748 20.761 2.98112C20.7133 2.81844 20.7621 3.38174 20.6222 3.09786C20.5849 2.88898 20.5433 2.79526 20.5118 2.91725C20.4988 3.232 20.4285 3.06184 20.3546 2.8608C20.3428 2.96771 20.2926 2.87161 20.3219 3.13998C20.3795 3.469 20.1855 3.10573 20.0873 3.00611C19.9919 2.91272 20.2744 3.48705 20.0639 3.24002C19.8434 3.01397 19.8749 3.11501 20.0007 3.33841C20.1308 3.55798 19.7704 3.24833 19.6664 3.21542C19.6998 3.30102 20.0229 3.60172 19.8367 3.52476C19.6249 3.43901 19.4415 3.37032 19.7098 3.57521C19.9822 3.75823 19.7734 3.73313 19.5603 3.70304C19.2608 3.64797 19.6217 3.79306 19.7266 3.85657C19.6786 3.89788 19.3209 3.88599 19.4069 3.93629C19.5034 3.97546 19.9617 4.0692 19.7321 4.07894C19.5675 3.93497 19.7521 4.22578 19.4445 4.20806C19.4545 4.20326 19.764 4.3668 19.4697 4.42105C19.6625 4.3143 19.8475 4.50483 19.5581 4.50181C19.2223 4.45172 19.5284 4.51769 19.5245 4.61815C19.8597 4.63562 19.5163 4.7013 19.3495 4.69395C19.3298 4.72969 19.515 4.77834 19.7021 4.83224C19.8785 4.88393 19.4494 4.95336 19.3598 5.01278C19.5054 5.03123 19.8966 4.98949 19.5808 5.12116C19.2757 5.26264 19.5978 5.18704 19.7522 5.16957C19.6499 5.26986 19.3278 5.49608 19.646 5.35547C19.8944 5.2656 19.8403 5.29222 19.749 5.43211C19.5148 5.68002 19.707 5.56305 19.892 5.45235C20.1733 5.46688 19.7032 5.59245 19.7922 5.57902C19.8376 5.52003 19.9297 5.79195 19.8725 5.79841C19.979 5.56831 20.2518 5.74849 19.9523 5.81103C19.6074 5.91154 19.9842 5.84407 20.0576 5.91764C20.2508 5.83585 19.9281 6.02343 19.8323 6.0767C20.0154 6.05035 20.2926 5.98133 20.0069 6.16862C19.7365 6.36521 20.134 6.17924 20.2543 6.15186C20.3088 6.16639 19.9014 6.55093 20.0991 6.43138C20.2114 6.39337 20.5464 6.10585 20.3838 6.37557C20.3226 6.52878 20.1706 6.81168 20.3913 6.55897C20.5619 6.29202 20.5833 6.55097 20.457 6.65326C20.4718 6.89297 20.4911 6.61712 20.671 6.76278C20.9906 6.88043 20.3451 6.82234 20.507 6.87997C20.3451 6.89789 20.7878 6.9783 20.8823 7.02275C20.8015 7.07125 20.3462 7.17619 20.5448 7.1826C20.8163 7.17064 20.8754 7.211 20.6035 7.33266C20.3282 7.4723 21.0112 7.24601 20.78 7.39694C20.5567 7.56453 20.5578 7.60469 20.8264 7.4927C21.1068 7.36144 20.7655 7.66831 20.71 7.77377C20.8125 7.73746 21.0606 7.54783 21.1146 7.56989C21.0898 7.67075 20.8832 8.03229 20.9899 7.94365C21.1232 7.81703 21.3095 7.59692 21.1897 7.9158C21.0865 8.23462 21.2439 7.9663 21.3372 7.83468C21.4861 7.52993 21.4373 7.89676 21.4536 8.04254C21.4403 8.34565 21.5496 7.90202 21.6017 7.80621C21.6426 7.9449 21.6893 8.35185 21.7195 8.00714C21.7531 7.7518 21.7766 8.0188 21.8655 8.13783C21.692 8.25675 22.3 8.04103 22.0773 8.19093C21.8539 8.35863 21.855 8.39868 22.1235 8.28679C22.4041 8.15542 22.0627 8.46242 22.0072 8.56788C22.1098 8.53156 22.3579 8.34193 22.4117 8.36398C22.3869 8.46483 22.1803 8.82638 22.2872 8.73764C22.4204 8.61113 22.6068 8.3909 22.487 8.70991C22.3836 9.02871 22.5411 8.76041 22.6344 8.62879C22.7832 8.32402 22.7345 8.69087 22.7508 8.83665C22.6721 9.12383 22.9296 8.66364 22.9819 8.95705C22.7106 9.11664 22.9784 9.03413 23.1558 9.01696C23.0872 9.09678 22.7318 9.33919 23.0235 9.21189C23.302 9.08228 23.2715 9.16948 23.0919 9.36134C22.9026 9.56918 23.2902 9.28334 23.3797 9.25269C23.4972 9.20882 23.2726 9.54905 23.2545 9.65732C23.2964 9.66333 23.5553 9.32362 23.5359 9.44993C23.5089 9.59325 23.4009 9.92876 23.5667 9.63463C23.6842 9.44364 23.7926 9.28442 23.7608 9.60954C23.7486 9.92381 23.8011 9.83023 23.8774 9.58716C23.9601 9.37505 23.9275 9.74899 23.9841 9.79008C23.9395 9.92086 24.1657 9.52815 24.1417 9.8131C23.7928 9.97512 24.2661 9.83503 24.2888 9.87686C24.1499 9.99817 23.9194 10.1717 24.2373 10.0293C24.5419 9.87762 24.3529 10.0732 24.2355 10.2188C24.0892 10.3916 24.473 10.1092 24.5627 10.0803C24.6004 10.1173 24.4236 10.4137 24.4207 10.4858C24.4633 10.5067 24.7759 10.0734 24.6808 10.3457C24.6154 10.5765 24.6055 10.691 24.7576 10.4273C24.8984 10.157 24.932 10.2526 24.9185 10.5105C24.9123 10.8758 24.9637 10.481 25.0689 10.4024C25.14 10.4855 25.1176 10.7795 25.174 10.6175C25.5107 10.4501 25.0634 10.8838 25.2332 10.7702C25.4432 10.6879 25.6318 10.6217 25.3955 10.8548C25.1555 11.1079 25.4597 10.8922 25.5933 10.8239C25.8245 10.6541 25.5618 11.0343 25.5442 11.1417C25.4752 11.2982 25.7404 10.9788 25.8148 10.9318C25.8111 11.0232 25.6574 11.4583 25.7991 11.222C25.8937 11.1092 26.0598 10.7532 26.0228 11.0898C26.0228 11.3182 26.0303 11.4995 26.1188 11.1815C26.1942 10.8555 26.2211 11.2692 26.2665 11.3981C26.2914 11.2495 26.3331 11.0067 26.3625 11.1948C26.4468 11.4081 26.4008 11.4133 26.6599 11.3564C26.8576 11.3122 26.2843 11.6606 26.534 11.5637C26.7442 11.4814 26.9276 11.4169 26.6926 11.649C26.4526 11.9021 26.757 11.6864 26.8906 11.6181C27.1214 11.447 26.861 11.8288 26.8444 11.9364C26.7768 12.0931 27.038 11.7767 27.1115 11.7296C27.1078 11.8197 26.9547 12.2526 27.0962 12.0162C27.1911 11.9035 27.3563 11.5474 27.3213 11.8842C27.3229 12.1117 27.3315 12.2955 27.4202 11.9763C27.496 11.6528 27.5202 12.0722 27.5648 12.1973C27.5916 11.9753 27.6209 11.7742 27.717 12.0931C27.8101 12.3101 27.67 11.6304 27.793 11.8663C27.9161 12.0636 28.0118 12.1975 27.9164 11.8847C27.8091 11.5907 27.9253 11.6757 28.0907 11.8455C28.2198 12.0436 28.313 11.9487 28.5201 11.8841C28.7215 11.8005 28.3085 12.1704 28.3694 12.1747C28.4684 12.1508 28.8107 11.8549 28.7288 12.0349C28.7017 12.1384 28.4781 12.5245 28.6704 12.3127C28.8494 12.1061 28.9065 12.1134 28.8142 12.3837C28.7294 12.6635 28.9406 12.2683 29.0084 12.1963C29.1385 11.9546 29.0622 12.4158 29.093 12.5123C29.0986 12.7391 29.2186 12.1092 29.2522 12.2737C29.295 12.4953 29.3373 12.6962 29.3646 12.3582C29.3802 12.1091 29.5495 12.8076 29.5061 12.4107C29.455 12.0779 29.5763 12.2834 29.6876 12.4571C29.7668 12.5511 29.6353 12.1508 29.6306 12.0473C29.7312 12.1216 29.9413 12.3439 29.9874 12.3483C30.0454 12.3497 29.7229 11.9257 29.908 12.05C30.07 12.1503 30.2767 12.2924 30.0569 12.0456C29.8461 11.8268 29.937 11.815 30.1852 11.9113C30.5128 12.0387 30.1955 11.8367 30.0826 11.7388C29.9636 11.6425 30.4597 11.7781 30.4259 11.726C30.3007 11.6481 29.9226 11.5204 30.2654 11.5316C30.6167 11.5308 30.2532 11.4597 30.1086 11.4091C30.212 11.3677 30.6251 11.3 30.3067 11.2924C30.037 11.2884 29.9725 11.2425 30.2476 11.1252C30.4701 11.0182 30.3296 11.0323 30.3283 10.9995C30.0432 11.0971 30.0764 10.9631 30.2963 10.8786C30.3436 10.7822 30.2752 10.8731 30.1267 10.733C29.9062 10.5449 30.5035 10.7166 30.3517 10.6366C30.1894 10.551 29.8955 10.4398 30.2441 10.4534C30.6192 10.4521 30.0833 10.3729 30.0968 10.326C30.3161 10.27 30.5137 10.2156 30.1735 10.2072C29.8282 10.2199 30.1398 10.0946 30.2836 10.0047C30.4424 9.92607 30.2095 9.98162 30.3139 9.91912C30.0488 9.98522 29.9907 9.95588 30.2335 9.78807C30.3576 9.68013 30.0883 9.79469 29.9501 9.83863C29.7277 9.93504 30.0589 9.60683 30.0938 9.5059C30.0348 9.50387 29.6736 9.84549 29.814 9.60293C29.9367 9.36124 29.9398 9.29207 29.737 9.52037C29.5234 9.79179 29.643 9.47251 29.6744 9.30978C29.741 9.0706 29.4898 9.57524 29.4702 9.50535C29.4765 9.32232 29.5093 9.026 29.3958 9.35501C29.3038 9.67478 29.2672 9.4532 29.2293 9.24484C29.1906 9.1142 29.1547 9.11876 29.1277 9.35673C29.1049 9.55373 28.9791 9.00688 28.9834 9.22944C28.9505 9.09049 28.9812 9.60539 28.7747 9.35956C28.9678 9.21092 28.9759 9.16365 28.7524 9.25603C28.5389 9.35086 28.4471 9.35712 28.6357 9.14567C28.8531 8.88123 28.658 9.02257 28.4876 9.13978C28.3359 9.25012 28.6763 8.73749 28.5507 8.84484C28.452 8.91205 28.1876 9.2761 28.2918 8.97966C28.3511 8.75584 28.3816 8.59745 28.2183 8.87817C28.0648 9.18478 28.1801 8.64318 28.1334 8.66183C28.0641 8.76053 27.9602 9.19432 27.9333 8.88292C27.894 8.65647 27.8546 8.58943 27.8219 8.65019C27.8049 8.95625 27.7436 8.88473 27.6616 8.63558C27.6381 8.74885 27.6323 8.59942 27.5896 8.79891C27.2451 8.90841 27.5945 8.63537 27.5959 8.61612C27.5715 8.58879 27.3127 8.70333 27.1769 8.74352C27.2168 8.65362 27.52 8.30504 27.3604 8.4114C27.1758 8.55093 27.0413 8.63058 27.2028 8.35721C27.3632 8.06009 27.0907 8.391 26.9897 8.47277C26.8728 8.5774 27.0308 8.1894 27.0295 8.08695C26.935 8.1988 26.7579 8.55603 26.814 8.22029C26.8583 7.87466 26.7401 8.22606 26.6727 8.35984C26.6004 8.54512 26.5851 8.00156 26.5397 8.04C26.492 7.89146 26.4887 8.32067 26.4284 8.25584C26.3464 8.01964 26.3169 8.0544 26.291 8.09623C26.2727 8.20361 26.3593 8.59691 26.2205 8.37024C26.0402 8.17908 26.3835 8.24262 26.0621 8.17087C26.0406 8.18688 25.6688 8.18678 26.0048 8.05921C26.2066 7.96107 26.1811 7.93913 26.1602 7.91583C26.1939 7.8649 25.6844 8.02689 26.0155 7.82584C26.2201 7.67225 26.066 7.71624 25.8844 7.78548C25.5793 7.94534 25.8034 7.69931 25.8942 7.55547C26.0551 7.34329 25.6334 7.72714 25.6367 7.65765C25.6852 7.52261 25.8802 7.17626 25.6536 7.43812C25.476 7.64468 25.4132 7.6474 25.5066 7.3722C25.6112 7.04367 25.4098 7.40321 25.3195 7.51327C25.3093 7.40575 25.374 6.98339 25.2699 7.28081C25.1766 7.47963 25.1538 7.57039 25.128 7.43697C25.0985 7.18562 25.1906 7.3345 25.0595 7.12457C25.0202 7.24392 25.0395 7.05438 24.9646 7.22839C24.6482 7.1847 25.1508 7.00051 25.1211 6.97553C25.0961 6.94533 25.0388 6.93484 24.8062 6.98103C24.9215 6.87699 25.1512 6.71095 24.9824 6.76664C24.8387 6.80166 24.4916 6.99103 24.7218 6.74252C24.893 6.52498 24.8889 6.47928 24.6555 6.65853C24.4369 6.83855 24.6935 6.45545 24.7116 6.35492C24.6215 6.40615 24.3544 6.77173 24.3981 6.58509C24.4355 6.40755 24.529 6.10432 24.3523 6.40844C24.1946 6.71128 24.2648 6.34461 24.2597 6.19916C24.222 6.23657 24.1001 6.65971 24.0333 6.37862C24.3046 6.28781 23.9728 6.2972 23.9801 6.18889C23.9409 6.2181 23.9687 6.13341 23.8939 6.26802C23.6483 6.22547 24.0719 6.0921 24.147 6.02148C24.0122 6.03413 24.1347 5.95486 23.853 6.02295C23.771 6.00831 24.1422 5.78011 24.0314 5.79646C23.9212 5.80697 23.5151 6.04447 23.6802 5.84391C23.7828 5.69241 23.971 5.45673 23.6978 5.67502C23.4391 5.90139 23.631 5.59373 23.6839 5.45078C23.7019 5.35592 23.4077 5.73726 23.3776 5.69555C23.3799 5.60065 23.5402 5.14832 23.3977 5.38186C23.2651 5.56189 23.2425 5.6418 23.2494 5.42441C23.316 5.17435 23.217 5.3166 23.0051 5.21839C22.8242 5.17304 23.5038 5.09924 23.1655 5.08589C22.9397 5.07289 22.746 5.0533 23.0513 4.93022C23.289 4.81531 23.1742 4.8191 23.1578 4.78873C22.8567 4.87135 22.9256 4.78371 23.1293 4.63388C23.1891 4.55842 22.9447 4.66122 22.7958 4.70985C22.6388 4.75858 22.9371 4.45799 22.9738 4.35817C22.8656 4.40441 22.5381 4.70912 22.6999 4.43735C22.8472 4.1616 22.7656 4.21531 22.589 4.40607C22.401 4.62872 22.5184 4.37596 22.5366 4.22128C22.6141 4.19973 22.5658 4.06826 22.4482 4.15021C22.3774 4.02831 22.1336 4.06521 22.3805 4.02154C22.7261 4.02087 22.4795 3.95845 22.2863 3.9016C22.2284 3.86008 22.8 3.79484 22.4841 3.78303C22.2594 3.76934 22.059 3.75069 22.3662 3.62692C22.5865 3.51762 22.5285 3.49532 22.447 3.48993C22.1223 3.58051 22.2929 3.44567 22.4633 3.31093C22.4606 3.27378 22.232 3.36697 22.0827 3.41614C21.9817 3.4284 22.3097 3.0858 22.264 3.07113C22.1364 3.14154 21.8493 3.40164 22.0258 3.11042C22.1878 2.81173 22.0361 2.96678 21.883 3.12357C21.698 3.34703 21.8775 2.91715 21.8769 2.80996C21.8519 2.75861 21.6109 3.27831 21.6615 2.97837C21.6643 2.89501 21.6671 2.81167 21.6699 2.72832ZM20.8317 3.19256C20.8053 3.2603 20.8658 3.2344 20.8317 3.19256ZM22.4763 4.21605C22.2381 4.11306 22.3595 4.53815 22.4763 4.21605ZM22.2808 4.19812C22.0902 4.10853 22.2598 4.31852 22.2808 4.19812ZM22.1561 4.34585C22.1433 4.54085 22.2595 4.33226 22.1561 4.34585ZM19.7825 4.23731C19.4151 4.16814 19.589 4.3344 19.7825 4.23731ZM19.8254 4.51568C19.7822 4.52193 19.865 4.53427 19.8254 4.51568ZM23.2225 5.30944C23.2153 5.61152 22.8312 5.27863 23.1582 5.3158C23.1797 5.31369 23.2011 5.31157 23.2225 5.30944ZM23.1271 5.5181C22.9767 5.46049 23.0992 5.772 23.1271 5.5181ZM22.8831 5.49295C22.8839 5.52728 22.9011 5.48535 22.8831 5.49295ZM22.7271 5.62077C22.7334 5.6593 22.75 5.6086 22.7271 5.62077ZM23.7728 6.23376C23.7338 6.23992 23.7958 6.28336 23.7728 6.23376ZM23.9067 6.38596C23.8147 6.38252 23.9269 6.4615 23.9067 6.38596ZM24.1093 6.51071C24.0184 6.48942 24.0933 6.65737 24.1093 6.51071ZM20.755 6.38428C20.6805 6.4347 20.7819 6.47386 20.755 6.38428ZM20.6924 6.47322C20.9418 6.61606 20.5563 6.77733 20.5925 6.61279C20.6258 6.56627 20.6591 6.51974 20.6924 6.47322ZM24.8425 7.14877C24.7576 7.24731 24.894 7.22244 24.8425 7.14877ZM24.8052 7.16967C24.6924 7.19419 24.8288 7.24355 24.8052 7.16967ZM20.8668 6.63521C20.7971 6.71727 21.0335 6.72801 20.8668 6.63521ZM24.9822 7.31321C24.8613 7.31028 25.0069 7.47233 24.9822 7.31321ZM20.7933 6.8244C20.7808 6.83996 20.8153 6.82709 20.7933 6.8244ZM26.0728 8.26903C25.7502 8.25864 26.1872 8.4702 26.0728 8.26903ZM22.0186 7.77023C21.9958 7.96544 22.3632 7.78683 22.0186 7.77023ZM21.8645 7.78122C21.8135 8.00883 22.0499 7.94099 21.8645 7.78122ZM26.1175 8.43067C25.9964 8.39327 26.2135 8.57505 26.1175 8.43067ZM25.9513 8.44746C25.7989 8.41082 26.0674 8.57067 25.9513 8.44746ZM22.131 7.99092C22.0216 7.95719 22.0542 8.07048 22.131 7.99092ZM22.0062 7.98367C22.0842 8.23101 21.6696 8.03874 21.9593 7.98186L21.9891 7.98293L22.0062 7.98367ZM27.6227 8.82138C27.5476 8.83132 27.6306 8.85422 27.6227 8.82138ZM27.384 8.81223C27.3101 8.83579 27.4188 8.84414 27.384 8.81223ZM27.6232 8.87052C27.3878 8.91083 27.7432 9.24947 27.6232 8.87052ZM27.4315 8.98166C27.2872 8.99035 27.5544 9.18444 27.4315 8.98166ZM28.9615 9.41015C28.8837 9.43143 28.9603 9.46242 28.9615 9.41015ZM28.7313 9.39467C28.6345 9.43196 28.7746 9.45044 28.7313 9.39467ZM28.9614 9.46296C28.7946 9.49053 29.0463 9.73682 28.9614 9.46296ZM22.893 8.61454C23.0804 8.77375 22.6989 8.96464 22.8576 8.70862L22.893 8.61454ZM23.0426 8.65946C22.9568 8.82204 23.1524 8.77797 23.0426 8.65946ZM23.163 8.69638C23.1442 8.74339 23.2442 8.68734 23.163 8.69638ZM28.782 9.56843C28.7173 9.58488 28.8364 9.64895 28.782 9.56843ZM28.6486 9.64668C28.6106 9.64875 28.6663 9.66563 28.6486 9.64668ZM23.1402 8.87804C22.9209 8.82394 22.945 9.06953 23.1402 8.87804ZM24.1783 9.4899C24.1198 9.69767 24.3679 9.57825 24.1783 9.4899ZM24.346 9.54139C24.3469 9.55372 24.3728 9.53522 24.346 9.54139ZM24.0592 9.54769C23.9731 9.71942 24.1633 9.67551 24.0592 9.54769ZM24.3006 9.71968C24.1071 9.66518 24.153 9.86918 24.3006 9.71968ZM30.0475 10.6298C29.9655 10.593 30.0052 10.677 30.0475 10.6298ZM29.9927 10.7953C30.3797 10.786 29.8953 11.0207 29.9738 10.8221L29.9909 10.7979L29.9927 10.7953ZM25.0697 10.3215C24.9888 10.4303 25.126 10.4121 25.0697 10.3215ZM25.4099 10.4182C25.2945 10.3816 25.3062 10.52 25.4099 10.4182ZM25.2096 10.4064C25.1037 10.6783 25.3517 10.4953 25.2096 10.4064ZM25.424 10.5557C25.2804 10.5403 25.3183 10.6994 25.424 10.5557ZM26.5947 10.9914C26.572 11.1862 26.9395 11.0077 26.5947 10.9914ZM26.4417 10.9951C26.3898 11.2267 26.6247 11.159 26.4417 10.9951ZM28.3841 11.3936C28.505 11.5144 28.5795 11.4119 28.3841 11.3936ZM26.7071 11.2124C26.5979 11.178 26.6303 11.2916 26.7071 11.2124ZM26.5862 11.2052C26.6529 11.4497 26.2489 11.2589 26.5356 11.2025L26.5652 11.2045L26.5862 11.2052ZM28.1339 11.4361C28.2405 11.6393 28.5101 11.4656 28.1339 11.4361ZM28.4708 11.6072C28.1435 11.5233 28.2754 11.7884 28.4708 11.6072ZM28.0694 11.615C28.3826 11.6895 28.0387 11.8462 28.3391 11.7689C28.4803 11.8407 28.1446 12.0795 28.1855 11.8402C28.1488 11.7635 28.1081 11.6897 28.0694 11.615ZM28.4844 11.7482C28.3222 11.7337 28.3935 11.8688 28.4844 11.7482Z" fill="white"/>
<path fill-rule="evenodd" clip-rule="evenodd" d="M24.5692 0.979807C24.5635 0.646199 25.886 0.351157 26.4771 0.201055C26.9052 0.0922705 27.3577 -0.0338082 27.7918 0.00832256C28.6919 0.0955536 29.6102 0.241403 30.4478 0.628969C31.1754 0.965741 32.0198 1.10776 32.6824 1.54608C33.1715 1.8697 33.5714 2.31846 33.8874 2.82462C34.2104 3.34135 34.5152 3.87829 34.7044 4.45226C34.8342 4.84578 34.9708 5.2378 34.9293 5.66792C34.8055 6.94606 34.7278 8.23146 34.5304 9.50403C34.419 10.223 34.4593 11.0076 34.1366 11.6633C33.5174 12.9179 32.5836 13.9965 31.9114 15.2272C31.6792 15.6515 31.675 16.3734 31.2442 16.5064C30.9863 16.5866 30.9415 16.0958 30.8241 15.881C30.5156 15.3172 30.5599 14.6565 30.4142 14.044C30.153 12.9404 30.2237 11.7985 30.153 10.6757C30.0613 9.21415 29.7748 7.71142 29.5239 6.2671C29.414 5.634 29.3919 4.88884 29.0345 4.39978C28.6879 3.92541 27.9495 3.76052 27.4255 3.42083C26.9637 3.12156 26.4716 2.82393 26.0954 2.43235C25.5937 1.91037 24.5763 1.38316 24.5692 0.979807Z" fill="url(#paint2_linear_1150_1887)"/>
<path d="M31.3763 13.9124L30.9762 14.7915L30.7657 13.8642L30.7311 14.0441L30.6806 13.8167L30.5594 14.5121L30.2955 13.8933L30.2956 14.1133L30.2083 13.9152L30.2341 14.882L29.6345 14.1327L29.8506 14.9106L29.2186 14.363L29.6245 15.1773L28.7654 14.6817L29.3396 15.4379L28.4729 15.1235L29.242 15.8257L28.5549 15.7634L28.2636 15.7361L28.1958 15.7367L28.9673 16.128L28.1798 16.1957L28.3089 16.2391L28.1281 16.2523L29.1427 16.5565L28.1953 16.9007L29.0265 16.9415L28.329 17.3552L29.0643 17.2556L28.4525 17.7867L29.327 17.496L28.7525 18.2338L29.6829 17.71L29.2787 18.6717L29.3008 18.6508L29.287 18.689L29.9251 18.0895L29.7453 18.9076L29.7391 18.9496L30.3795 18.0392L30.4229 19.1266L30.7403 18.2942L30.9321 19.1275L31.0518 18.4238L31.3399 19.0623L31.3266 18.2314L31.8225 18.9492L31.6089 17.9141L32.4329 18.6486L32.3813 18.539L32.4266 18.5806L32.0445 17.8262L32.3498 17.9978L32.8328 18.2871L32.2042 17.4397L33.2374 17.7279L32.5096 17.1499L33.4369 17.2373L32.6185 16.8148L33.4321 16.735L32.6803 16.5048L33.4417 16.2831L32.4743 16.1737L33.3547 15.6586L33.0947 15.6949L33.2913 15.574L32.5984 15.6799L33.1695 15.1857L33.0273 15.2315L33.1056 15.16L32.1867 15.4763L32.7504 14.6457L32.0111 15.1229L32.3721 14.2889L31.6311 14.9991L31.8488 14.0338L31.348 14.7316L31.3763 13.9124Z" fill="white"/>
<path fill-rule="evenodd" clip-rule="evenodd" d="M24.5692 0.979807C24.5635 0.646199 25.886 0.351157 26.4771 0.201055C26.9052 0.0922706 27.3577 -0.0338082 27.7918 0.00832256C28.6919 0.0955536 29.6102 0.241403 30.4478 0.628969C31.1754 0.965741 32.0198 1.10776 32.6824 1.54608C33.1715 1.8697 33.5714 2.31846 33.8874 2.82462C34.2104 3.34135 34.5152 3.87829 34.7044 4.45226C34.8342 4.84578 35.1368 5.28901 34.9293 5.66792C34.3667 6.69171 33.9809 6.85215 33.499 7.29491C32.4646 8.24347 32.1297 9.65538 31.4573 10.887C31.2261 11.3115 31.221 12.0323 30.7911 12.1663C30.5332 12.2466 30.4885 11.7548 30.3709 11.541C30.0626 10.9762 30.4136 10.1733 30.268 9.55996C30.0064 8.45728 29.7585 7.55103 29.5152 6.30749C29.2337 4.8689 29.934 7.92398 29.6831 6.47966C29.5732 5.84656 29.3919 4.88884 29.0345 4.39978C28.6879 3.92541 27.9495 3.76052 27.4255 3.42083C26.9637 3.12156 26.4716 2.82393 26.0954 2.43235C25.5937 1.91037 24.5763 1.38316 24.5692 0.979807Z" fill="url(#paint3_linear_1150_1887)"/>
<path d="M5.47444 20.7571C5.47444 20.7571 5.99393 22.553 5.36773 23.4111C4.74074 24.2732 3.00137 24.2282 3.00137 24.2282C3.00137 24.2282 4.27018 25.8571 3.31385 27.0186C2.35831 28.176 0.636929 28.1509 0.636929 28.1509C1.68288 29.8693 0 32 0 32C0 32 2.4729 30.7485 4.09173 31.9943C4.09173 31.9943 4.32913 30.3735 5.68047 29.6516C7.03102 28.9338 8.52883 30.3744 8.52883 30.3744C8.52883 30.3744 8.75246 28.7345 9.7377 28.2765C10.7272 27.8192 12.5142 28.5834 12.5142 28.5834C12.5142 28.5834 9.8798 24.9927 11.2962 22.7942C8.80006 23.7838 5.47444 20.7571 5.47444 20.7571Z" fill="url(#paint4_linear_1150_1887)"/>
<path d="M15.6976 16.5755C15.6976 16.5755 13.743 16.4596 13.0931 15.6177C12.4394 14.7737 13.0489 13.2236 13.0489 13.2236C13.0489 13.2236 11.0172 13.8361 10.1728 12.5987C9.33205 11.3632 9.916 9.8228 9.916 9.8228C7.86762 10.2058 6.29528 8 6.29528 8C6.29528 8 6.73675 10.631 4.97229 11.6828C4.97229 11.6828 6.50698 12.4227 6.78599 13.8727C7.06126 15.3208 5.14238 16.2005 5.14238 16.2005C5.14238 16.2005 6.70049 16.9341 6.83605 17.9692C6.9695 19.0078 5.62934 20.3673 5.62934 20.3673C5.62934 20.3673 10.0553 19.1633 11.7816 21.1513C11.608 18.5844 15.6976 16.5755 15.6976 16.5755Z" fill="url(#paint5_linear_1150_1887)"/>
<path d="M15.0881 26.9442C16.0951 26.2258 16.2975 24.8709 15.5479 23.9115C14.7925 22.9539 13.3637 22.7596 12.3567 23.4779C11.3497 24.1962 11.1474 25.5512 11.897 26.5106C12.6523 27.4682 14.0811 27.6625 15.0881 26.9442Z" fill="url(#paint6_linear_1150_1887)"/>
<path d="M10.5136 25.4662C11.5207 24.7479 11.7249 23.3893 10.9734 22.4336C10.2218 21.4778 8.79307 21.2836 7.78802 21.9983C6.78296 22.7129 6.57485 24.0697 7.33024 25.0273C8.07785 25.9903 9.50658 26.1845 10.5136 25.4662Z" fill="url(#paint7_linear_1150_1887)"/>
<path d="M10.9478 22.0439C10.1925 21.0863 10.4006 19.7296 11.4076 19.0113C12.4146 18.293 13.8414 18.4909 14.5968 19.4485C15.3522 20.4061 15.144 21.7628 14.137 22.4811C13.13 23.1995 11.7012 23.0052 10.9478 22.0439Z" fill="url(#paint8_linear_1150_1887)"/>
<defs>
<linearGradient id="paint0_linear_1150_1887" x1="31" y1="5.40984" x2="11.6326" y2="32.0526" gradientUnits="userSpaceOnUse">
<stop stop-color="#67E8F9"/>
<stop offset="1" stop-color="#2563EB"/>
</linearGradient>
<linearGradient id="paint1_linear_1150_1887" x1="24.5488" y1="0.955101" x2="31.3949" y2="14.319" gradientUnits="userSpaceOnUse">
<stop stop-color="#EC2D4E"/>
<stop offset="1"/>
</linearGradient>
<linearGradient id="paint2_linear_1150_1887" x1="24.5478" y1="0.9557" x2="33.8883" y2="22.5354" gradientUnits="userSpaceOnUse">
<stop stop-color="#EC2D4E"/>
<stop offset="1" stop-color="#350C0C"/>
</linearGradient>
<linearGradient id="paint3_linear_1150_1887" x1="24.5478" y1="0.9557" x2="37.2349" y2="26.9493" gradientUnits="userSpaceOnUse">
<stop stop-color="#E32A48"/>
<stop offset="1" stop-color="#1C0404"/>
</linearGradient>
<linearGradient id="paint4_linear_1150_1887" x1="1.03536" y1="26.0795" x2="12.5588" y2="28.3265" gradientUnits="userSpaceOnUse">
<stop stop-color="#00A674"/>
<stop offset="1" stop-color="#04592D"/>
</linearGradient>
<linearGradient id="paint5_linear_1150_1887" x1="11.8484" y1="10.8594" x2="6.4929" y2="20.8298" gradientUnits="userSpaceOnUse">
<stop stop-color="#00A674"/>
<stop offset="1" stop-color="#04592D"/>
</linearGradient>
<linearGradient id="paint6_linear_1150_1887" x1="11.698" y1="24.2129" x2="15.6524" y2="26.3717" gradientUnits="userSpaceOnUse">
<stop stop-color="#F12E51"/>
<stop offset="1" stop-color="#8F0A0A"/>
</linearGradient>
<linearGradient id="paint7_linear_1150_1887" x1="7.12796" y1="22.7352" x2="11.0793" y2="24.8924" gradientUnits="userSpaceOnUse">
<stop stop-color="#F12E51"/>
<stop offset="1" stop-color="#8F0A0A"/>
</linearGradient>
<linearGradient id="paint8_linear_1150_1887" x1="10.7548" y1="19.7489" x2="14.7105" y2="21.9084" gradientUnits="userSpaceOnUse">
<stop stop-color="#F12E51"/>
<stop offset="1" stop-color="#8F0A0A"/>
</linearGradient>
</defs>
</svg>
