<svg width="14" height="15" viewBox="0 0 14 15" fill="none" xmlns="http://www.w3.org/2000/svg">
<path d="M6.39522 11.7028C6.75271 11.4313 7.24729 11.4313 7.60478 11.7028L9.45521 13.108C10.2306 13.6968 11.3046 12.943 11.0146 12.0136L10.2648 9.61154C10.1382 9.20572 10.2819 8.76417 10.6233 8.51073L12.572 7.06374C13.3455 6.48938 12.9393 5.26087 11.9758 5.26087H9.67113C9.2325 5.26087 8.84507 4.97502 8.71565 4.55592L7.95548 2.09421C7.66523 1.15428 6.33477 1.15428 6.04452 2.09422L5.28435 4.55592C5.15493 4.97502 4.7675 5.26087 4.32887 5.26087H2.02417C1.06072 5.26087 0.654491 6.48938 1.42801 7.06374L3.37674 8.51072C3.71806 8.76417 3.86183 9.20571 3.73517 9.61154L2.98543 12.0136C2.69535 12.943 3.76943 13.6968 4.5448 13.108L6.39522 11.7028Z" stroke="#9CA3AF" stroke-width="1.4"/>
</svg>
